<svg xmlns="http://www.w3.org/2000/svg" version="1.1" xmlns:xlink="http://www.w3.org/1999/xlink" xmlns:svgjs="http://svgjs.dev/svgjs" width="250" height="50.5" viewBox="0 0 1000 202"><g transform="matrix(1,0,0,1,0.10666666666668334,-0.24234684210529167)"><svg viewBox="0 0 375 76" data-background-color="#6936f5" preserveAspectRatio="xMidYMid meet" height="202" width="1000" xmlns="http://www.w3.org/2000/svg" xmlns:xlink="http://www.w3.org/1999/xlink"><g id="tight-bounds" transform="matrix(1,0,0,1,-0.03976000000000113,0.09118000000000848)"><svg viewBox="0 0 375.07953 75.81764000000001" height="75.81764000000001" width="375.07953"><g><svg></svg></g><g><svg viewBox="0 0 375.07953 75.81764000000001" height="75.81764000000001" width="375.07953"><g transform="matrix(1,0,0,1,-10.22024,-89.05855)"><path d="M10.22 158.141v-69.082h375.08v69.082l-21.888 0 0-2.481h19.406v-64.12h-370.116v64.12h28.572l0 2.481z" fill="#000000" fill-rule="nonzero" stroke="none" stroke-width="1" stroke-linecap="butt" stroke-linejoin="miter" stroke-miterlimit="10" stroke-dasharray="" stroke-dashoffset="0" font-family="none" font-weight="none" font-size="none" text-anchor="none" style="mix-blend-mode: normal" data-fill-palette-color="tertiary"></path><g><path d="M50.296 158.728v0.688c0 0.369 0.015 0.652 0.045 0.85v0h-1.622v-9.209h1.577v5.64l2.941-3.16h1.913l-2.535 2.672 1.448 1.975c0.313 0.499 0.549 0.864 0.707 1.095v0l0.427 0.601c0.128 0.167 0.236 0.295 0.322 0.386v0h-1.018c-0.378 0-0.703 0.033-0.974 0.097v0l-2.007-2.938zM66.943 156.955v0c0-0.503 0.086-0.969 0.258-1.398 0.172-0.429 0.415-0.804 0.728-1.126v0c0.67-0.682 1.546-1.023 2.627-1.023v0c0.914 0 1.649 0.302 2.203 0.907v0c0.545 0.584 0.818 1.318 0.818 2.202v0c0 0.339-0.025 0.572-0.077 0.697v0c-0.431 0.12-1.305 0.179-2.622 0.179v0h-2.266c0.111 0.459 0.37 0.817 0.779 1.074 0.408 0.255 0.938 0.382 1.59 0.382v0c0.682 0 1.269-0.122 1.759-0.367v0c0.128-0.065 0.224-0.126 0.288-0.182v0c-0.007 0.181-0.018 0.366-0.032 0.554v0l-0.071 1.005c-0.325 0.223-0.853 0.378-1.583 0.465v0c-0.215 0.026-0.421 0.04-0.619 0.039v0c-1.09 0-1.991-0.318-2.704-0.955v0c-0.717-0.638-1.076-1.456-1.076-2.453zM71.862 156.143v0c-0.176-0.921-0.678-1.382-1.506-1.382v0c-0.652 0-1.148 0.28-1.488 0.841v0c-0.102 0.172-0.181 0.361-0.237 0.567v0c0.104 0.005 0.23 0.01 0.38 0.013v0h0.477c0.158 0.005 0.31 0.008 0.456 0.008v0h0.367c0.22 0 0.434-0.003 0.644-0.008v0l0.527-0.018c0.142-0.005 0.269-0.012 0.38-0.021zM85.612 156.955v0c0-0.503 0.086-0.969 0.259-1.398 0.172-0.429 0.415-0.804 0.728-1.126v0c0.67-0.682 1.546-1.023 2.627-1.023v0c0.914 0 1.649 0.302 2.202 0.907v0c0.545 0.584 0.818 1.318 0.818 2.202v0c0 0.339-0.025 0.572-0.076 0.697v0c-0.429 0.12-1.303 0.179-2.622 0.179v0h-2.266c0.111 0.459 0.37 0.817 0.778 1.074 0.408 0.255 0.938 0.382 1.591 0.382v0c0.682 0 1.269-0.122 1.759-0.367v0c0.128-0.065 0.225-0.126 0.29-0.182v0c-0.009 0.181-0.02 0.366-0.034 0.554v0l-0.069 1.005c-0.327 0.223-0.855 0.378-1.585 0.465v0c-0.215 0.026-0.42 0.04-0.617 0.039v0c-1.092 0-1.994-0.318-2.707-0.955v0c-0.717-0.638-1.076-1.456-1.076-2.453zM90.534 156.143v0c-0.176-0.921-0.679-1.382-1.509-1.382v0c-0.652 0-1.148 0.28-1.487 0.841v0c-0.102 0.172-0.181 0.361-0.238 0.567v0c0.104 0.005 0.23 0.01 0.38 0.013v0h0.478c0.158 0.005 0.31 0.008 0.456 0.008v0h0.367c0.22 0 0.434-0.003 0.643-0.008v0l0.53-0.018c0.141-0.005 0.267-0.012 0.38-0.021zM106.281 160.131v0 1.894c0 0.368 0.008 0.608 0.024 0.72v0h-1.604v-9.208h1.58v0.417c0.519-0.364 1.016-0.546 1.493-0.546 0.477 0 0.899 0.067 1.269 0.2 0.369 0.132 0.694 0.338 0.973 0.617v0c0.614 0.605 0.921 1.467 0.921 2.588v0c0 0.744-0.174 1.408-0.523 1.991v0c-0.297 0.494-0.707 0.889-1.229 1.185v0c-0.464 0.262-0.967 0.393-1.508 0.393-0.54 0-1.005-0.084-1.396-0.251zM106.281 155.404v3.102c0.325 0.276 0.747 0.414 1.266 0.414v0c0.851 0 1.401-0.411 1.649-1.231v0c0.086-0.278 0.129-0.577 0.129-0.897 0-0.32-0.03-0.576-0.09-0.768-0.06-0.19-0.138-0.355-0.234-0.496-0.097-0.139-0.205-0.254-0.325-0.345-0.121-0.093-0.244-0.168-0.366-0.224v0c-0.22-0.098-0.446-0.148-0.678-0.148-0.232 0-0.472 0.054-0.72 0.161-0.25 0.107-0.46 0.251-0.631 0.432zM138.094 156.937v0c0-0.473 0.081-0.925 0.243-1.356 0.16-0.431 0.39-0.808 0.691-1.132v0c0.658-0.695 1.51-1.042 2.556-1.041v0c1.045 0 1.874 0.328 2.487 0.983v0c0.587 0.628 0.881 1.442 0.881 2.443v0c0 1.001-0.302 1.829-0.907 2.485v0c-0.64 0.696-1.488 1.045-2.543 1.044v0c-1.09 0-1.945-0.342-2.564-1.026v0c-0.563-0.622-0.844-1.423-0.844-2.4zM139.658 156.897v0c0 0.271 0.046 0.533 0.138 0.786 0.09 0.253 0.218 0.47 0.385 0.652v0c0.357 0.39 0.825 0.586 1.403 0.585v0c0.538 0 0.961-0.192 1.269-0.575v0c0.301-0.369 0.451-0.849 0.451-1.44v0c0-0.601-0.154-1.087-0.462-1.456v0c-0.331-0.396-0.784-0.593-1.361-0.593v0c-0.584 0-1.041 0.21-1.372 0.63v0c-0.301 0.387-0.451 0.857-0.451 1.411zM158.948 155.763v3.677c0 0.378 0.018 0.653 0.053 0.826v0h-1.617v-6.729h1.564v0.572c0.566-0.468 1.172-0.702 1.817-0.701v0c0.703 0 1.265 0.239 1.686 0.717 0.42 0.478 0.63 1.109 0.63 1.891v0 2.561c0 0.726 0.011 1.162 0.034 1.309 0.021 0.146 0.05 0.24 0.087 0.282 0.035 0.044 0.066 0.083 0.093 0.116v0l-0.013 0.026c-0.348-0.03-0.601-0.045-0.76-0.044v0h-0.451c-0.137 0-0.322 0.006-0.554 0.018v0-3.508c0-1.259-0.382-1.889-1.145-1.889v0c-0.568 0-1.043 0.292-1.424 0.876zM195.875 159.904v0c-0.545 0.306-1.09 0.459-1.635 0.459-0.545 0-1.022-0.086-1.43-0.258-0.408-0.172-0.755-0.409-1.041-0.71v0c-0.593-0.617-0.889-1.42-0.889-2.408v0c0-1.022 0.343-1.871 1.028-2.548v0c0.691-0.688 1.576-1.031 2.654-1.031v0c0.331 0 0.655 0.043 0.973 0.129v0-2.867h1.577v6.884c0 0.572 0.027 0.945 0.082 1.121 0.053 0.176 0.113 0.304 0.18 0.385 0.067 0.083 0.151 0.16 0.253 0.232v0l-1.211 1.071c-0.223-0.121-0.404-0.274-0.541-0.459zM194.543 158.881v0c0.36 0 0.691-0.069 0.992-0.206v0-3.569c-0.301-0.123-0.627-0.185-0.978-0.184-0.352 0-0.653 0.047-0.905 0.139-0.251 0.095-0.468 0.226-0.649 0.393v0c-0.376 0.352-0.564 0.809-0.565 1.372v0c0 0.614 0.171 1.103 0.515 1.469v0c0.369 0.39 0.899 0.586 1.59 0.586zM209.607 156.955v0c0-0.503 0.086-0.969 0.259-1.398 0.171-0.429 0.412-0.804 0.725-1.126v0c0.67-0.682 1.547-1.023 2.63-1.023v0c0.914 0 1.648 0.302 2.2 0.907v0c0.547 0.584 0.82 1.318 0.82 2.202v0c0 0.339-0.026 0.572-0.079 0.697v0c-0.429 0.12-1.302 0.179-2.619 0.179v0h-2.269c0.113 0.459 0.373 0.817 0.781 1.074 0.408 0.255 0.938 0.382 1.59 0.382v0c0.682 0 1.268-0.122 1.757-0.367v0c0.128-0.065 0.225-0.126 0.29-0.182v0c-0.009 0.181-0.019 0.366-0.031 0.554v0l-0.072 1.005c-0.327 0.223-0.855 0.378-1.585 0.465v0c-0.215 0.026-0.42 0.04-0.617 0.039v0c-1.09 0-1.991-0.318-2.704-0.955v0c-0.717-0.638-1.076-1.456-1.076-2.453zM214.526 156.143v0c-0.176-0.921-0.678-1.382-1.506-1.382v0c-0.652 0-1.148 0.28-1.487 0.841v0c-0.104 0.172-0.183 0.361-0.238 0.567v0c0.102 0.005 0.229 0.01 0.38 0.013v0h0.475c0.16 0.005 0.313 0.008 0.459 0.008v0h0.366c0.218 0 0.433-0.003 0.644-0.008v0l0.528-0.018c0.142-0.005 0.269-0.012 0.379-0.021zM230.337 160.266l-2.709-6.729h1.82l1.572 4.428 1.519-4.428h1.786l-2.662 6.729zM245.878 156.955v0c0-0.503 0.086-0.969 0.258-1.398 0.171-0.429 0.413-0.804 0.728-1.126v0c0.668-0.682 1.544-1.023 2.628-1.023v0c0.914 0 1.649 0.302 2.202 0.907v0c0.545 0.584 0.818 1.318 0.818 2.202v0c0 0.339-0.026 0.572-0.079 0.697v0c-0.429 0.12-1.302 0.179-2.62 0.179v0h-2.268c0.113 0.459 0.373 0.817 0.781 1.074 0.408 0.255 0.938 0.382 1.59 0.382v0c0.682 0 1.268-0.122 1.757-0.367v0c0.13-0.065 0.227-0.126 0.29-0.182v0c-0.009 0.181-0.019 0.366-0.032 0.554v0l-0.071 1.005c-0.325 0.223-0.853 0.378-1.582 0.465v0c-0.216 0.026-0.423 0.04-0.62 0.039v0c-1.09 0-1.991-0.318-2.704-0.955v0c-0.717-0.638-1.076-1.456-1.076-2.453zM250.797 156.143v0c-0.176-0.921-0.678-1.382-1.506-1.382v0c-0.652 0-1.148 0.28-1.488 0.841v0c-0.104 0.172-0.183 0.361-0.237 0.567v0c0.102 0.005 0.229 0.01 0.38 0.013v0h0.475c0.16 0.005 0.313 0.008 0.459 0.008v0h0.366c0.218 0 0.433-0.003 0.644-0.008v0l0.527-0.018c0.142-0.005 0.269-0.012 0.38-0.021zM266.365 150.67v8.875c0 0.369 0.009 0.609 0.026 0.721v0h-1.638v-9.596zM278.646 156.937v0c0-0.473 0.081-0.925 0.243-1.356 0.16-0.431 0.39-0.808 0.691-1.132v0c0.658-0.695 1.51-1.042 2.556-1.041v0c1.045 0 1.874 0.328 2.487 0.983v0c0.587 0.628 0.881 1.442 0.881 2.443v0c0 1.001-0.302 1.829-0.907 2.485v0c-0.64 0.696-1.488 1.045-2.543 1.044v0c-1.092 0-1.947-0.342-2.564-1.026v0c-0.563-0.622-0.844-1.423-0.844-2.4zM280.21 156.897v0c0 0.271 0.046 0.533 0.137 0.786 0.09 0.253 0.218 0.47 0.385 0.652v0c0.357 0.39 0.825 0.586 1.404 0.585v0c0.536 0 0.959-0.192 1.268-0.575v0c0.301-0.369 0.451-0.849 0.451-1.44v0c0-0.601-0.155-1.087-0.464-1.456v0c-0.331-0.396-0.783-0.593-1.358-0.593v0c-0.584 0-1.041 0.21-1.372 0.63v0c-0.301 0.387-0.451 0.857-0.451 1.411zM299.481 160.131v0 1.894c0 0.368 0.008 0.608 0.024 0.72v0h-1.604v-9.208h1.58v0.417c0.519-0.364 1.016-0.546 1.493-0.546 0.477 0 0.899 0.067 1.269 0.2 0.369 0.132 0.694 0.338 0.973 0.617v0c0.614 0.605 0.921 1.467 0.92 2.588v0c0 0.744-0.174 1.408-0.522 1.991v0c-0.295 0.494-0.705 0.889-1.229 1.185v0c-0.464 0.262-0.967 0.393-1.509 0.393-0.54 0-1.005-0.084-1.395-0.251zM299.481 155.404v3.102c0.325 0.276 0.748 0.414 1.269 0.414v0c0.849 0 1.399-0.411 1.648-1.231v0c0.084-0.278 0.127-0.577 0.127-0.897 0-0.32-0.03-0.576-0.09-0.768-0.06-0.19-0.138-0.355-0.235-0.496-0.097-0.139-0.205-0.254-0.324-0.345-0.121-0.093-0.244-0.168-0.367-0.224v0c-0.22-0.098-0.446-0.148-0.678-0.148-0.232 0-0.472 0.054-0.72 0.161-0.25 0.107-0.46 0.251-0.63 0.432zM317.692 152.661l-1.449-1.044c0.343-0.536 0.702-1.008 1.077-1.417v0l1.384 1.089c-0.185 0.227-0.357 0.45-0.517 0.67v0c0 0-0.165 0.234-0.495 0.702zM317.937 153.537v6.008c0 0.369 0.009 0.609 0.026 0.721v0h-1.635v-6.729zM332.41 155.763v3.677c0 0.378 0.017 0.653 0.05 0.826v0h-1.617v-6.729h1.567v0.572c0.566-0.468 1.171-0.702 1.815-0.701v0c0.705 0 1.268 0.239 1.688 0.717 0.42 0.478 0.63 1.109 0.63 1.891v0 2.561c0 0.726 0.011 1.162 0.032 1.309 0.021 0.146 0.05 0.24 0.087 0.282 0.037 0.044 0.069 0.083 0.095 0.116v0l-0.013 0.026c-0.348-0.03-0.601-0.045-0.76-0.044v0h-0.451c-0.137 0-0.322 0.006-0.554 0.018v0-3.508c0-1.259-0.382-1.889-1.147-1.889v0c-0.566 0-1.04 0.292-1.422 0.876zM351.119 158.475v0c-0.16 0.211-0.24 0.377-0.24 0.498 0 0.123 0.019 0.218 0.058 0.285 0.039 0.067 0.122 0.13 0.25 0.19v0c0.285 0.134 0.751 0.251 1.398 0.351 0.649 0.1 1.157 0.226 1.525 0.377 0.366 0.149 0.663 0.334 0.892 0.554v0c0.424 0.417 0.636 1.007 0.635 1.77 0 0.765-0.268 1.352-0.804 1.762-0.536 0.41-1.333 0.615-2.39 0.614v0c-1.064 0-1.922-0.232-2.574-0.696v0c-0.652-0.462-0.987-1.078-1.005-1.847v0c-0.026-0.893 0.324-1.54 1.049-1.938v0c-0.197-0.164-0.329-0.356-0.395-0.578-0.067-0.22-0.1-0.472-0.1-0.757v0c0-0.477 0.208-0.88 0.625-1.211v0c-0.485-0.459-0.728-1.03-0.728-1.711v0c0-0.765 0.274-1.404 0.823-1.918v0c0.58-0.542 1.332-0.812 2.255-0.812v0c0.485 0 0.94 0.09 1.364 0.269v0c0.559-0.236 0.97-0.442 1.231-0.62 0.262-0.178 0.429-0.308 0.502-0.391v0l0.039 0.008c0.039 0.102 0.084 0.248 0.135 0.438v0l0.116 0.462c0.104 0.383 0.166 0.645 0.187 0.786v0c-0.19 0.206-0.523 0.352-1 0.438v0c0.185 0.357 0.277 0.735 0.277 1.134 0 0.399-0.069 0.761-0.205 1.084-0.137 0.325-0.332 0.61-0.586 0.854v0c-0.563 0.528-1.279 0.791-2.15 0.792v0c-0.426 0-0.82-0.062-1.184-0.188zM350.95 155.578v0c-0.06 0.155-0.09 0.311-0.09 0.47 0 0.158 0.033 0.31 0.101 0.456 0.067 0.146 0.164 0.277 0.292 0.393v0c0.287 0.258 0.662 0.388 1.127 0.388v0c0.352 0 0.657-0.119 0.915-0.356v0c0.271-0.257 0.406-0.566 0.406-0.929 0-0.364-0.123-0.658-0.369-0.881-0.244-0.223-0.581-0.335-1.01-0.335v0c-0.709 0-1.166 0.265-1.372 0.794zM352.527 163.51v0c1.057 0 1.585-0.368 1.586-1.105v0c0-0.353-0.172-0.637-0.517-0.852v0c-0.385-0.244-1.048-0.435-1.989-0.573v0l-0.335-0.058c-0.283 0.149-0.491 0.343-0.625 0.581-0.132 0.236-0.197 0.46-0.195 0.672 0.002 0.213 0.052 0.397 0.15 0.551 0.098 0.155 0.236 0.289 0.411 0.404v0c0.392 0.253 0.897 0.38 1.514 0.38z" fill="#000000" fill-rule="nonzero" stroke="none" stroke-width="1" stroke-linecap="butt" stroke-linejoin="miter" stroke-miterlimit="10" stroke-dasharray="" stroke-dashoffset="0" font-family="none" font-weight="none" font-size="none" text-anchor="none" style="mix-blend-mode: normal" data-fill-palette-color="secondary"></path></g></g><g transform="matrix(1,0,0,1,29.33176499999999,24.150088163804497)"><svg viewBox="0 0 316.416 27.517463672391017" height="27.517463672391017" width="316.416"><g><svg viewBox="0 0 316.416 27.517463672391017" height="27.517463672391017" width="316.416"><g><svg viewBox="0 0 316.416 27.517463672391017" height="27.517463672391017" width="316.416"><g><svg viewBox="0 0 316.416 27.517463672391017" height="27.517463672391017" width="316.416"><g id="textblocktransform"><svg viewBox="0 0 316.416 27.517463672391017" height="27.517463672391017" width="316.416" id="textblock"><g><svg viewBox="0 0 316.416 27.517463672391017" height="27.517463672391017" width="316.416"><g transform="matrix(1,0,0,1,0,0)"><svg width="316.416" viewBox="1 -38.8 454.16 39.5" height="27.517463672391017" data-palette-color="#ffffff"><path d="M20.6-30.95L27.25-30.95Q27.85-28.9 28.58-26.33 29.3-23.75 30.13-21 30.95-18.25 31.8-15.5 32.65-12.75 33.45-10.4L33.45-10.4Q34.1-12.95 34.77-15.95 35.45-18.95 36.05-22.15 36.65-25.35 37.23-28.53 37.8-31.7 38.3-34.65L38.3-34.65 46.4-34.65Q44.65-25.95 42.38-17 40.1-8.05 37.45 0L37.45 0 30.3 0Q28.55-4.8 26.9-10.08 25.25-15.35 23.65-20.65L23.65-20.65Q22.05-15.35 20.45-10.08 18.85-4.8 17.1 0L17.1 0 9.95 0Q7.3-8.05 5.03-17 2.75-25.95 1-34.65L1-34.65 9.45-34.65Q9.95-31.7 10.55-28.53 11.15-25.35 11.8-22.15 12.45-18.95 13.13-15.95 13.8-12.95 14.5-10.4L14.5-10.4Q15.4-12.85 16.25-15.6 17.1-18.35 17.9-21.1 18.7-23.85 19.38-26.4 20.05-28.95 20.6-30.95L20.6-30.95ZM75.5-13.2L75.5-13.2Q75.5-10.1 74.6-7.53 73.7-4.95 72-3.13 70.3-1.3 67.92-0.3 65.55 0.7 62.6 0.7L62.6 0.7Q59.7 0.7 57.32-0.3 54.95-1.3 53.25-3.13 51.55-4.95 50.6-7.53 49.65-10.1 49.65-13.2L49.65-13.2Q49.65-16.3 50.62-18.85 51.6-21.4 53.32-23.2 55.05-25 57.42-26 59.8-27 62.6-27L62.6-27Q65.45-27 67.82-26 70.2-25 71.9-23.2 73.6-21.4 74.55-18.85 75.5-16.3 75.5-13.2ZM67.9-13.2L67.9-13.2Q67.9-16.65 66.52-18.63 65.15-20.6 62.6-20.6L62.6-20.6Q60.05-20.6 58.65-18.63 57.25-16.65 57.25-13.2L57.25-13.2Q57.25-9.75 58.65-7.73 60.05-5.7 62.6-5.7L62.6-5.7Q65.15-5.7 66.52-7.73 67.9-9.75 67.9-13.2ZM98.34-25.85L97.09-19.7Q96.09-19.95 94.75-20.23 93.4-20.5 91.84-20.5L91.84-20.5Q91.15-20.5 90.17-20.38 89.2-20.25 88.7-20.1L88.7-20.1 88.7 0 81.25 0 81.25-24.9Q83.25-25.6 85.97-26.23 88.7-26.85 92.05-26.85L92.05-26.85Q92.65-26.85 93.5-26.78 94.34-26.7 95.2-26.58 96.05-26.45 96.9-26.28 97.75-26.1 98.34-25.85L98.34-25.85ZM113.89-5.65L112.84 0.5Q109.59 0.45 107.57-0.2 105.54-0.85 104.37-2.02 103.19-3.2 102.77-4.88 102.34-6.55 102.34-8.65L102.34-8.65 102.34-37.6 109.79-38.8 109.79-10.15Q109.79-9.15 109.94-8.35 110.09-7.55 110.52-7 110.94-6.45 111.74-6.1 112.54-5.75 113.89-5.65L113.89-5.65ZM124.49-13.35L124.49-13.35Q124.49-9.9 126.04-7.8 127.59-5.7 130.64-5.7L130.64-5.7Q131.64-5.7 132.49-5.78 133.34-5.85 133.89-5.95L133.89-5.95 133.89-19.5Q133.19-19.95 132.06-20.25 130.94-20.55 129.79-20.55L129.79-20.55Q124.49-20.55 124.49-13.35ZM141.34-38.8L141.34-0.85Q140.34-0.55 139.04-0.28 137.74 0 136.31 0.2 134.89 0.4 133.41 0.53 131.94 0.65 130.59 0.65L130.59 0.65Q127.34 0.65 124.79-0.3 122.24-1.25 120.49-3.03 118.74-4.8 117.81-7.33 116.89-9.85 116.89-13L116.89-13Q116.89-16.2 117.69-18.78 118.49-21.35 119.99-23.15 121.49-24.95 123.67-25.9 125.84-26.85 128.64-26.85L128.64-26.85Q130.19-26.85 131.41-26.55 132.64-26.25 133.89-25.7L133.89-25.7 133.89-37.6 141.34-38.8ZM165.44-30.95L172.09-30.95Q172.69-28.9 173.41-26.33 174.14-23.75 174.96-21 175.79-18.25 176.64-15.5 177.49-12.75 178.29-10.4L178.29-10.4Q178.94-12.95 179.61-15.95 180.29-18.95 180.89-22.15 181.49-25.35 182.06-28.53 182.64-31.7 183.14-34.65L183.14-34.65 191.24-34.65Q189.49-25.95 187.21-17 184.94-8.05 182.29 0L182.29 0 175.14 0Q173.39-4.8 171.74-10.08 170.09-15.35 168.49-20.65L168.49-20.65Q166.89-15.35 165.29-10.08 163.69-4.8 161.94 0L161.94 0 154.79 0Q152.14-8.05 149.86-17 147.59-25.95 145.84-34.65L145.84-34.65 154.29-34.65Q154.79-31.7 155.39-28.53 155.99-25.35 156.64-22.15 157.29-18.95 157.96-15.95 158.64-12.95 159.34-10.4L159.34-10.4Q160.24-12.85 161.09-15.6 161.94-18.35 162.74-21.1 163.54-23.85 164.21-26.4 164.89-28.95 165.44-30.95L165.44-30.95ZM203.19-26.3L203.19 0 195.74 0 195.74-26.3 203.19-26.3ZM203.89-33.9L203.89-33.9Q203.89-31.85 202.56-30.68 201.24-29.5 199.44-29.5L199.44-29.5Q197.64-29.5 196.31-30.68 194.99-31.85 194.99-33.9L194.99-33.9Q194.99-35.95 196.31-37.13 197.64-38.3 199.44-38.3L199.44-38.3Q201.24-38.3 202.56-37.13 203.89-35.95 203.89-33.9ZM221.73-5.65L220.68 0.5Q217.43 0.45 215.41-0.2 213.38-0.85 212.21-2.02 211.03-3.2 210.61-4.88 210.18-6.55 210.18-8.65L210.18-8.65 210.18-37.6 217.63-38.8 217.63-10.15Q217.63-9.15 217.78-8.35 217.93-7.55 218.36-7 218.78-6.45 219.58-6.1 220.38-5.75 221.73-5.65L221.73-5.65ZM232.33-13.35L232.33-13.35Q232.33-9.9 233.88-7.8 235.43-5.7 238.48-5.7L238.48-5.7Q239.48-5.7 240.33-5.78 241.18-5.85 241.73-5.95L241.73-5.95 241.73-19.5Q241.03-19.95 239.91-20.25 238.78-20.55 237.63-20.55L237.63-20.55Q232.33-20.55 232.33-13.35ZM249.18-38.8L249.18-0.85Q248.18-0.55 246.88-0.28 245.58 0 244.16 0.2 242.73 0.4 241.26 0.53 239.78 0.65 238.43 0.65L238.43 0.65Q235.18 0.65 232.63-0.3 230.08-1.25 228.33-3.03 226.58-4.8 225.66-7.33 224.73-9.85 224.73-13L224.73-13Q224.73-16.2 225.53-18.78 226.33-21.35 227.83-23.15 229.33-24.95 231.51-25.9 233.68-26.85 236.48-26.85L236.48-26.85Q238.03-26.85 239.26-26.55 240.48-26.25 241.73-25.7L241.73-25.7 241.73-37.6 249.18-38.8ZM273.28-30.95L279.93-30.95Q280.53-28.9 281.25-26.33 281.98-23.75 282.8-21 283.63-18.25 284.48-15.5 285.33-12.75 286.13-10.4L286.13-10.4Q286.78-12.95 287.45-15.95 288.13-18.95 288.73-22.15 289.33-25.35 289.9-28.53 290.48-31.7 290.98-34.65L290.98-34.65 299.08-34.65Q297.33-25.95 295.05-17 292.78-8.05 290.13 0L290.13 0 282.98 0Q281.23-4.8 279.58-10.08 277.93-15.35 276.33-20.65L276.33-20.65Q274.73-15.35 273.13-10.08 271.53-4.8 269.78 0L269.78 0 262.63 0Q259.98-8.05 257.7-17 255.43-25.95 253.68-34.65L253.68-34.65 262.13-34.65Q262.63-31.7 263.23-28.53 263.83-25.35 264.48-22.15 265.13-18.95 265.8-15.95 266.48-12.95 267.18-10.4L267.18-10.4Q268.08-12.85 268.93-15.6 269.78-18.35 270.58-21.1 271.38-23.85 272.05-26.4 272.73-28.95 273.28-30.95L273.28-30.95ZM302.32-12.95L302.32-12.95Q302.32-16.45 303.4-19.07 304.47-21.7 306.22-23.45 307.97-25.2 310.25-26.1 312.52-27 314.93-27L314.93-27Q320.52-27 323.77-23.58 327.02-20.15 327.02-13.5L327.02-13.5Q327.02-12.85 326.97-12.08 326.93-11.3 326.88-10.7L326.88-10.7 309.97-10.7Q310.22-8.4 312.13-7.05 314.02-5.7 317.22-5.7L317.22-5.7Q319.27-5.7 321.25-6.08 323.22-6.45 324.47-7L324.47-7 325.47-0.95Q324.88-0.65 323.88-0.35 322.88-0.05 321.65 0.18 320.43 0.4 319.02 0.55 317.63 0.7 316.22 0.7L316.22 0.7Q312.68 0.7 310.05-0.35 307.43-1.4 305.7-3.23 303.97-5.05 303.15-7.55 302.32-10.05 302.32-12.95ZM309.97-15.8L319.82-15.8Q319.77-16.75 319.5-17.65 319.22-18.55 318.65-19.25 318.07-19.95 317.2-20.4 316.32-20.85 315.02-20.85L315.02-20.85Q313.77-20.85 312.88-20.43 311.97-20 311.38-19.3 310.77-18.6 310.45-17.68 310.13-16.75 309.97-15.8L309.97-15.8ZM349.62-13.35L349.62-13.35Q349.62-20.55 344.32-20.55L344.32-20.55Q343.17-20.55 342.05-20.25 340.92-19.95 340.22-19.5L340.22-19.5 340.22-5.95Q340.77-5.85 341.62-5.78 342.47-5.7 343.47-5.7L343.47-5.7Q346.52-5.7 348.07-7.8 349.62-9.9 349.62-13.35ZM357.22-13.15L357.22-13.15Q357.22-10 356.3-7.45 355.37-4.9 353.62-3.1 351.87-1.3 349.32-0.33 346.77 0.65 343.52 0.65L343.52 0.65Q342.17 0.65 340.7 0.53 339.22 0.4 337.8 0.2 336.37 0 335.07-0.28 333.77-0.55 332.77-0.85L332.77-0.85 332.77-37.6 340.22-38.8 340.22-25.7Q341.47-26.25 342.82-26.55 344.17-26.85 345.72-26.85L345.72-26.85Q348.52-26.85 350.67-25.88 352.82-24.9 354.27-23.1 355.72-21.3 356.47-18.78 357.22-16.25 357.22-13.15ZM368.77-3.95L368.77-3.95Q368.77-1.7 367.34-0.53 365.92 0.65 364.12 0.65L364.12 0.65Q362.32 0.65 360.89-0.53 359.47-1.7 359.47-3.95L359.47-3.95Q359.47-6.2 360.89-7.38 362.32-8.55 364.12-8.55L364.12-8.55Q365.92-8.55 367.34-7.38 368.77-6.2 368.77-3.95ZM378.62-13.35L378.62-13.35Q378.62-9.9 380.17-7.8 381.72-5.7 384.77-5.7L384.77-5.7Q385.77-5.7 386.62-5.78 387.47-5.85 388.02-5.95L388.02-5.95 388.02-19.5Q387.32-19.95 386.19-20.25 385.07-20.55 383.92-20.55L383.92-20.55Q378.62-20.55 378.62-13.35ZM395.47-38.8L395.47-0.85Q394.47-0.55 393.17-0.28 391.87 0 390.44 0.2 389.02 0.4 387.54 0.53 386.07 0.65 384.72 0.65L384.72 0.65Q381.47 0.65 378.92-0.3 376.37-1.25 374.62-3.03 372.87-4.8 371.94-7.33 371.02-9.85 371.02-13L371.02-13Q371.02-16.2 371.82-18.78 372.62-21.35 374.12-23.15 375.62-24.95 377.79-25.9 379.97-26.85 382.77-26.85L382.77-26.85Q384.32-26.85 385.54-26.55 386.77-26.25 388.02-25.7L388.02-25.7 388.02-37.6 395.47-38.8ZM401.21-12.95L401.21-12.95Q401.21-16.45 402.29-19.07 403.36-21.7 405.11-23.45 406.86-25.2 409.14-26.1 411.41-27 413.81-27L413.81-27Q419.41-27 422.66-23.58 425.91-20.15 425.91-13.5L425.91-13.5Q425.91-12.85 425.86-12.08 425.81-11.3 425.76-10.7L425.76-10.7 408.86-10.7Q409.11-8.4 411.01-7.05 412.91-5.7 416.11-5.7L416.11-5.7Q418.16-5.7 420.14-6.08 422.11-6.45 423.36-7L423.36-7 424.36-0.95Q423.76-0.65 422.76-0.35 421.76-0.05 420.54 0.18 419.31 0.4 417.91 0.55 416.51 0.7 415.11 0.7L415.11 0.7Q411.56 0.7 408.94-0.35 406.31-1.4 404.59-3.23 402.86-5.05 402.04-7.55 401.21-10.05 401.21-12.95ZM408.86-15.8L418.71-15.8Q418.66-16.75 418.39-17.65 418.11-18.55 417.54-19.25 416.96-19.95 416.09-20.4 415.21-20.85 413.91-20.85L413.91-20.85Q412.66-20.85 411.76-20.43 410.86-20 410.26-19.3 409.66-18.6 409.34-17.68 409.01-16.75 408.86-15.8L408.86-15.8ZM445.01 0L438.81 0Q436.26-5 433.64-11.7 431.01-18.4 428.66-26.3L428.66-26.3 436.56-26.3Q437.06-24.35 437.74-22.08 438.41-19.8 439.14-17.48 439.86-15.15 440.59-12.95 441.31-10.75 442.01-8.95L442.01-8.95Q442.66-10.75 443.41-12.95 444.16-15.15 444.89-17.48 445.61-19.8 446.29-22.08 446.96-24.35 447.46-26.3L447.46-26.3 455.16-26.3Q452.81-18.4 450.19-11.7 447.56-5 445.01 0L445.01 0Z" opacity="1" transform="matrix(1,0,0,1,0,0)" fill="#000000" class="undefined-text-0" data-fill-palette-color="primary" id="text-0"></path></svg></g></svg></g></svg></g></svg></g><g></g></svg></g></svg></g></svg></g></svg></g><defs></defs></svg><rect width="375.07953" height="75.81764000000001" fill="none" stroke="none" visibility="hidden"></rect></g></svg></g></svg>