<svg xmlns="http://www.w3.org/2000/svg" version="1.1" xmlns:xlink="http://www.w3.org/1999/xlink" xmlns:svgjs="http://svgjs.dev/svgjs" width="280" height="50" viewBox="0 0 1000 164"><g transform="matrix(1,0,0,1,-0.6060606060606233,0.40423803385847634)"><svg viewBox="0 0 396 65" data-background-color="#ffffff" preserveAspectRatio="xMidYMid meet" height="164" width="1000" xmlns="http://www.w3.org/2000/svg" xmlns:xlink="http://www.w3.org/1999/xlink"><g id="tight-bounds" transform="matrix(1,0,0,1,0.2400000000000091,-0.16021629390732528)"><svg viewBox="0 0 395.52 65.32043258781464" height="65.32043258781464" width="395.52"><g><svg viewBox="0 0 483.2860429289764 79.81506216569048" height="65.32043258781464" width="395.52"><g transform="matrix(1,0,0,1,87.76604292897645,11.03088051638704)"><svg viewBox="0 0 395.52 57.7533011329164" height="57.7533011329164" width="395.52"><g id="textblocktransform"><svg viewBox="0 0 395.52 57.7533011329164" height="57.7533011329164" width="395.52" id="textblock"><g><svg viewBox="0 0 395.52 33.679750433275565" height="33.679750433275565" width="395.52"><g transform="matrix(1,0,0,1,0,0)"><svg width="395.52" viewBox="0.85 -36.55 432.71 36.849999999999994" height="33.679750433275565" data-palette-color="#4b5563"><path d="M13.4 0.3L13.4 0.3Q12.55 0.3 11.78-0.08 11-0.45 10.8-1.15L10.8-1.15 0.9-34.4Q0.85-34.6 0.85-34.85L0.85-34.85Q0.85-35.35 1.25-35.73 1.65-36.1 2.23-36.33 2.8-36.55 3.35-36.55L3.35-36.55Q3.9-36.55 4.38-36.33 4.85-36.1 4.95-35.6L4.95-35.6 13.4-5.9 18.15-24.2Q18.35-24.9 18.98-25.2 19.6-25.5 20.3-25.5L20.3-25.5Q21.05-25.5 21.65-25.2 22.25-24.9 22.4-24.2L22.4-24.2 27.2-5.9 35.65-35.6Q35.8-36.1 36.23-36.33 36.65-36.55 37.2-36.55L37.2-36.55Q37.8-36.55 38.38-36.33 38.95-36.1 39.35-35.73 39.75-35.35 39.75-34.85L39.75-34.85Q39.75-34.6 39.65-34.4L39.65-34.4 29.85-1.15Q29.6-0.45 28.85-0.08 28.1 0.3 27.2 0.3L27.2 0.3Q26.35 0.3 25.58-0.08 24.8-0.45 24.65-1.15L24.65-1.15 20.3-17.65 16-1.15Q15.8-0.45 15.05-0.08 14.3 0.3 13.4 0.3ZM54.5 0.3L54.5 0.3Q51.45 0.3 49.02-0.78 46.6-1.85 45.17-4.23 43.75-6.6 43.75-10.6L43.75-10.6 43.75-25.65Q43.75-29.65 45.17-32.02 46.6-34.4 49.02-35.48 51.45-36.55 54.5-36.55L54.5-36.55Q57.55-36.55 60-35.48 62.45-34.4 63.87-32.02 65.3-29.65 65.3-25.65L65.3-25.65 65.3-10.6Q65.3-6.6 63.87-4.23 62.45-1.85 60-0.78 57.55 0.3 54.5 0.3ZM54.5-3.5L54.5-3.5Q57.6-3.5 59.35-5.23 61.1-6.95 61.1-10.6L61.1-10.6 61.1-25.65Q61.1-29.3 59.35-31.03 57.6-32.75 54.5-32.75L54.5-32.75Q51.4-32.75 49.67-31.03 47.95-29.3 47.95-25.65L47.95-25.65 47.95-10.6Q47.95-6.95 49.67-5.23 51.4-3.5 54.5-3.5ZM91.45 0.1L91.45 0.1Q90.84 0.1 90.37-0.4 89.9-0.9 89.55-1.55L89.55-1.55 82.05-16.2 76.25-16.2 76.25-1.5Q76.25-0.75 75.59-0.38 74.95 0 74.15 0L74.15 0Q73.4 0 72.72-0.38 72.05-0.75 72.05-1.5L72.05-1.5 72.05-35.1Q72.05-35.7 72.47-36.1 72.9-36.5 73.55-36.55L73.55-36.55 82.7-36.55Q85.75-36.55 88.27-35.63 90.8-34.7 92.3-32.52 93.8-30.35 93.8-26.55L93.8-26.55Q93.8-23.5 92.82-21.5 91.84-19.5 90.15-18.38 88.45-17.25 86.34-16.8L86.34-16.8 93.75-2.75Q93.84-2.55 93.9-2.38 93.95-2.2 93.95-2.05L93.95-2.05Q93.95-1.5 93.57-1 93.2-0.5 92.62-0.2 92.05 0.1 91.45 0.1ZM76.25-32.75L76.25-19.7 82.7-19.7Q85.8-19.7 87.7-21.2 89.59-22.7 89.59-26.25L89.59-26.25Q89.59-29.8 87.7-31.28 85.8-32.75 82.7-32.75L82.7-32.75 76.25-32.75ZM116.89 0L100.89 0Q100.19 0 99.59-0.38 98.99-0.75 98.99-1.5L98.99-1.5 98.99-35.1Q98.99-35.85 99.67-36.2 100.34-36.55 101.09-36.55L101.09-36.55Q101.89-36.55 102.54-36.2 103.19-35.85 103.19-35.1L103.19-35.1 103.19-3.8 116.89-3.8Q117.59-3.8 117.92-3.23 118.24-2.65 118.24-1.9L118.24-1.9Q118.24-1.2 117.92-0.6 117.59 0 116.89 0L116.89 0ZM133.14 0L124.29 0Q123.44 0 122.92-0.43 122.39-0.85 122.39-1.45L122.39-1.45 122.39-35.1Q122.39-35.7 122.92-36.13 123.44-36.55 124.29-36.55L124.29-36.55 133.14-36.55Q136.19-36.55 138.64-35.48 141.09-34.4 142.52-32.02 143.94-29.65 143.94-25.65L143.94-25.65 143.94-10.9Q143.94-6.9 142.52-4.53 141.09-2.15 138.64-1.07 136.19 0 133.14 0L133.14 0ZM126.59-32.75L126.59-3.8 133.14-3.8Q136.24-3.8 137.99-5.53 139.74-7.25 139.74-10.9L139.74-10.9 139.74-25.65Q139.74-29.3 137.99-31.03 136.24-32.75 133.14-32.75L133.14-32.75 126.59-32.75ZM160.54 0.3L160.54 0.3Q159.69 0.3 158.91-0.08 158.14-0.45 157.94-1.15L157.94-1.15 148.04-34.4Q147.99-34.6 147.99-34.85L147.99-34.85Q147.99-35.35 148.39-35.73 148.79-36.1 149.36-36.33 149.94-36.55 150.49-36.55L150.49-36.55Q151.04-36.55 151.51-36.33 151.99-36.1 152.09-35.6L152.09-35.6 160.54-5.9 165.29-24.2Q165.49-24.9 166.11-25.2 166.74-25.5 167.44-25.5L167.44-25.5Q168.19-25.5 168.79-25.2 169.39-24.9 169.54-24.2L169.54-24.2 174.34-5.9 182.79-35.6Q182.94-36.1 183.36-36.33 183.79-36.55 184.34-36.55L184.34-36.55Q184.94-36.55 185.51-36.33 186.09-36.1 186.49-35.73 186.89-35.35 186.89-34.85L186.89-34.85Q186.89-34.6 186.79-34.4L186.79-34.4 176.99-1.15Q176.74-0.45 175.99-0.08 175.24 0.3 174.34 0.3L174.34 0.3Q173.49 0.3 172.71-0.08 171.94-0.45 171.79-1.15L171.79-1.15 167.44-17.65 163.14-1.15Q162.94-0.45 162.19-0.08 161.44 0.3 160.54 0.3ZM193.34 0L193.34 0Q192.59 0 191.91-0.38 191.24-0.75 191.24-1.5L191.24-1.5 191.24-35.1Q191.24-35.85 191.91-36.2 192.59-36.55 193.34-36.55L193.34-36.55Q194.14-36.55 194.79-36.2 195.44-35.85 195.44-35.1L195.44-35.1 195.44-1.5Q195.44-0.75 194.79-0.38 194.14 0 193.34 0ZM220.48 0L204.48 0Q203.78 0 203.18-0.38 202.58-0.75 202.58-1.5L202.58-1.5 202.58-35.1Q202.58-35.85 203.26-36.2 203.93-36.55 204.68-36.55L204.68-36.55Q205.48-36.55 206.13-36.2 206.78-35.85 206.78-35.1L206.78-35.1 206.78-3.8 220.48-3.8Q221.18-3.8 221.51-3.23 221.83-2.65 221.83-1.9L221.83-1.9Q221.83-1.2 221.51-0.6 221.18 0 220.48 0L220.48 0ZM236.73 0L227.88 0Q227.03 0 226.51-0.43 225.98-0.85 225.98-1.45L225.98-1.45 225.98-35.1Q225.98-35.7 226.51-36.13 227.03-36.55 227.88-36.55L227.88-36.55 236.73-36.55Q239.78-36.55 242.23-35.48 244.68-34.4 246.11-32.02 247.53-29.65 247.53-25.65L247.53-25.65 247.53-10.9Q247.53-6.9 246.11-4.53 244.68-2.15 242.23-1.07 239.78 0 236.73 0L236.73 0ZM230.18-32.75L230.18-3.8 236.73-3.8Q239.83-3.8 241.58-5.53 243.33-7.25 243.33-10.9L243.33-10.9 243.33-25.65Q243.33-29.3 241.58-31.03 239.83-32.75 236.73-32.75L236.73-32.75 230.18-32.75ZM264.13 0.3L264.13 0.3Q263.28 0.3 262.5-0.08 261.73-0.45 261.53-1.15L261.53-1.15 251.63-34.4Q251.58-34.6 251.58-34.85L251.58-34.85Q251.58-35.35 251.98-35.73 252.38-36.1 252.95-36.33 253.53-36.55 254.08-36.55L254.08-36.55Q254.63-36.55 255.1-36.33 255.58-36.1 255.68-35.6L255.68-35.6 264.13-5.9 268.88-24.2Q269.08-24.9 269.7-25.2 270.33-25.5 271.03-25.5L271.03-25.5Q271.78-25.5 272.38-25.2 272.98-24.9 273.13-24.2L273.13-24.2 277.93-5.9 286.38-35.6Q286.53-36.1 286.95-36.33 287.38-36.55 287.93-36.55L287.93-36.55Q288.53-36.55 289.1-36.33 289.68-36.1 290.08-35.73 290.48-35.35 290.48-34.85L290.48-34.85Q290.48-34.6 290.38-34.4L290.38-34.4 280.58-1.15Q280.33-0.45 279.58-0.08 278.83 0.3 277.93 0.3L277.93 0.3Q277.08 0.3 276.3-0.08 275.53-0.45 275.38-1.15L275.38-1.15 271.03-17.65 266.73-1.15Q266.53-0.45 265.78-0.08 265.03 0.3 264.13 0.3ZM314.53 0L296.73 0Q296.03 0 295.43-0.38 294.83-0.75 294.83-1.5L294.83-1.5 294.83-35.05Q294.83-35.8 295.43-36.18 296.03-36.55 296.73-36.55L296.73-36.55 314.53-36.55Q315.33-36.55 315.65-35.95 315.98-35.35 315.98-34.7L315.98-34.7Q315.98-33.95 315.6-33.35 315.23-32.75 314.53-32.75L314.53-32.75 299.03-32.75 299.03-20.05 306.83-20.05Q307.53-20.05 307.9-19.5 308.28-18.95 308.28-18.25L308.28-18.25Q308.28-17.65 307.95-17.1 307.63-16.55 306.83-16.55L306.83-16.55 299.03-16.55 299.03-3.8 314.53-3.8Q315.23-3.8 315.6-3.23 315.98-2.65 315.98-1.85L315.98-1.85Q315.98-1.2 315.65-0.6 315.33 0 314.53 0L314.53 0ZM332.17 0L322.42 0Q321.57 0 321.05-0.43 320.52-0.85 320.52-1.45L320.52-1.45 320.52-35.05Q320.52-35.8 321.12-36.18 321.72-36.55 322.42-36.55L322.42-36.55 331.02-36.55Q333.77-36.55 336.1-35.88 338.42-35.2 339.8-33.35 341.17-31.5 341.17-28L341.17-28Q341.17-24.85 340.02-22.75 338.87-20.65 336.92-19.8L336.92-19.8Q338.47-19.2 339.62-18.18 340.77-17.15 341.42-15.53 342.07-13.9 342.07-11.3L342.07-11.3 342.07-10.4Q342.07-6.55 340.77-4.28 339.47-2 337.22-1 334.97 0 332.17 0L332.17 0ZM324.72-18.05L324.72-3.8 331.47-3.8Q334.52-3.8 336.2-5.45 337.87-7.1 337.87-10.65L337.87-10.65 337.87-11.5Q337.87-15.1 336.2-16.57 334.52-18.05 331.47-18.05L331.47-18.05 324.72-18.05ZM324.72-32.75L324.72-21.55 330.97-21.55Q334.07-21.55 335.52-22.93 336.97-24.3 336.97-27.4L336.97-27.4Q336.97-29.45 336.2-30.63 335.42-31.8 334.05-32.27 332.67-32.75 330.82-32.75L330.82-32.75 324.72-32.75ZM348.67 0.3L348.67 0.3Q347.52 0.3 346.77-0.5 346.02-1.3 346.02-2.3L346.02-2.3Q346.02-3.4 346.77-4.17 347.52-4.95 348.67-4.95L348.67-4.95Q349.67-4.95 350.45-4.17 351.22-3.4 351.22-2.3L351.22-2.3Q351.22-1.3 350.45-0.5 349.67 0.3 348.67 0.3ZM367.32 0L358.47 0Q357.62 0 357.09-0.43 356.57-0.85 356.57-1.45L356.57-1.45 356.57-35.1Q356.57-35.7 357.09-36.13 357.62-36.55 358.47-36.55L358.47-36.55 367.32-36.55Q370.37-36.55 372.82-35.48 375.27-34.4 376.69-32.02 378.12-29.65 378.12-25.65L378.12-25.65 378.12-10.9Q378.12-6.9 376.69-4.53 375.27-2.15 372.82-1.07 370.37 0 367.32 0L367.32 0ZM360.77-32.75L360.77-3.8 367.32-3.8Q370.42-3.8 372.17-5.53 373.92-7.25 373.92-10.9L373.92-10.9 373.92-25.65Q373.92-29.3 372.17-31.03 370.42-32.75 367.32-32.75L367.32-32.75 360.77-32.75ZM404.57 0L386.77 0Q386.07 0 385.47-0.38 384.87-0.75 384.87-1.5L384.87-1.5 384.87-35.05Q384.87-35.8 385.47-36.18 386.07-36.55 386.77-36.55L386.77-36.55 404.57-36.55Q405.37-36.55 405.69-35.95 406.02-35.35 406.02-34.7L406.02-34.7Q406.02-33.95 405.64-33.35 405.27-32.75 404.57-32.75L404.57-32.75 389.07-32.75 389.07-20.05 396.87-20.05Q397.57-20.05 397.94-19.5 398.32-18.95 398.32-18.25L398.32-18.25Q398.32-17.65 397.99-17.1 397.67-16.55 396.87-16.55L396.87-16.55 389.07-16.55 389.07-3.8 404.57-3.8Q405.27-3.8 405.64-3.23 406.02-2.65 406.02-1.85L406.02-1.85Q406.02-1.2 405.69-0.6 405.37 0 404.57 0L404.57 0ZM420.71 0.3L420.71 0.3Q419.86 0.3 419.11-0.08 418.36-0.45 418.11-1.15L418.11-1.15 407.86-34.4Q407.81-34.6 407.81-34.8L407.81-34.8Q407.81-35.3 408.21-35.7 408.61-36.1 409.21-36.33 409.81-36.55 410.36-36.55L410.36-36.55Q410.91-36.55 411.34-36.33 411.76-36.1 411.91-35.6L411.91-35.6 420.71-5.9 429.46-35.6Q429.61-36.1 430.01-36.33 430.41-36.55 430.96-36.55L430.96-36.55Q431.56-36.55 432.16-36.3 432.76-36.05 433.16-35.68 433.56-35.3 433.56-34.75L433.56-34.75Q433.56-34.7 433.54-34.6 433.51-34.5 433.51-34.4L433.51-34.4 423.31-1.15Q423.11-0.45 422.36-0.08 421.61 0.3 420.71 0.3Z" opacity="1" transform="matrix(1,0,0,1,0,0)" fill="#ffffff" class="wordmark-text-0" data-fill-palette-color="primary" id="text-0"></path></svg></g></svg></g><g transform="matrix(1,0,0,1,0,41.63073119656153)"><svg viewBox="0 0 232.209792 16.12256993635487" height="16.12256993635487" width="232.209792"><g transform="matrix(1,0,0,1,0,0)"><svg width="232.209792" viewBox="4.7 -35.5 518.4599999999999 36" height="16.12256993635487" data-palette-color="#4b5563"><path d="M29.7 0.2L29.7 0.2Q29.05 0.2 28.6-0.35L28.6-0.35 14.4-18.2 16.75-20.55 31.05-2.45Q31.4-1.95 31.4-1.4L31.4-1.4Q31.4-0.6 30.83-0.2 30.25 0.2 29.7 0.2ZM29.15-34.9L29.15-34.9Q29.75-34.9 30.18-34.45 30.6-34 30.6-33.45L30.6-33.45Q30.6-32.85 30.15-32.4L30.15-32.4 7.45-11.15 7.05-14.55 28.05-34.4Q28.55-34.9 29.15-34.9ZM6.25 0L6.25 0Q5.55 0 5.13-0.45 4.7-0.9 4.7-1.55L4.7-1.55 4.7-33.45Q4.7-34.1 5.15-34.55 5.6-35 6.3-35L6.3-35Q6.95-35 7.4-34.55 7.85-34.1 7.85-33.45L7.85-33.45 7.85-1.55Q7.8-0.9 7.35-0.45 6.9 0 6.25 0ZM39.95-35L39.95-35 58.3-35Q58.9-35 59.35-34.58 59.8-34.15 59.8-33.5L59.8-33.5Q59.8-32.85 59.35-32.45 58.9-32.05 58.3-32.05L58.3-32.05 41.1-32.05 41.6-32.9 41.6-18.85 41.05-19.5 56.05-19.5Q56.65-19.5 57.1-19.05 57.55-18.6 57.55-18L57.55-18Q57.55-17.35 57.1-16.95 56.65-16.55 56.05-16.55L56.05-16.55 41.15-16.55 41.6-17.05 41.6-2.65 41.35-2.95 58.3-2.95Q58.9-2.95 59.35-2.5 59.8-2.05 59.8-1.45L59.8-1.45Q59.8-0.8 59.35-0.4 58.9 0 58.3 0L58.3 0 39.95 0Q39.35 0 38.9-0.45 38.45-0.9 38.45-1.5L38.45-1.5 38.45-33.5Q38.45-34.1 38.9-34.55 39.35-35 39.95-35ZM68.35-35L68.35-35 86.7-35Q87.3-35 87.75-34.58 88.2-34.15 88.2-33.5L88.2-33.5Q88.2-32.85 87.75-32.45 87.3-32.05 86.7-32.05L86.7-32.05 69.5-32.05 70-32.9 70-18.85 69.45-19.5 84.45-19.5Q85.05-19.5 85.5-19.05 85.95-18.6 85.95-18L85.95-18Q85.95-17.35 85.5-16.95 85.05-16.55 84.45-16.55L84.45-16.55 69.55-16.55 70-17.05 70-2.65 69.75-2.95 86.7-2.95Q87.3-2.95 87.75-2.5 88.2-2.05 88.2-1.45L88.2-1.45Q88.2-0.8 87.75-0.4 87.3 0 86.7 0L86.7 0 68.35 0Q67.75 0 67.3-0.45 66.85-0.9 66.85-1.5L66.85-1.5 66.85-33.5Q66.85-34.1 67.3-34.55 67.75-35 68.35-35ZM96.74-35L108.59-35Q111.39-35 113.54-33.73 115.69-32.45 116.94-30.2 118.19-27.95 118.19-25.05L118.19-25.05Q118.19-22.15 116.94-19.83 115.69-17.5 113.54-16.15 111.39-14.8 108.59-14.8L108.59-14.8 97.99-14.8 98.24-15.3 98.24-1.5Q98.24-0.9 97.79-0.45 97.34 0 96.74 0L96.74 0Q96.04 0 95.64-0.45 95.24-0.9 95.24-1.5L95.24-1.5 95.24-33.5Q95.24-34.1 95.69-34.55 96.14-35 96.74-35L96.74-35ZM97.94-17.7L108.59-17.7Q110.54-17.7 111.99-18.68 113.44-19.65 114.27-21.33 115.09-23 115.09-25.05L115.09-25.05Q115.09-27.1 114.27-28.68 113.44-30.25 111.99-31.15 110.54-32.05 108.59-32.05L108.59-32.05 97.99-32.05 98.24-32.5 98.24-17.4 97.94-17.7ZM169.89-17.5L169.89-17.5Q169.89-13.55 168.66-10.28 167.44-7 165.19-4.58 162.94-2.15 159.86-0.83 156.79 0.5 153.14 0.5L153.14 0.5Q149.49 0.5 146.41-0.83 143.34-2.15 141.09-4.58 138.84-7 137.61-10.28 136.39-13.55 136.39-17.5L136.39-17.5Q136.39-21.45 137.61-24.73 138.84-28 141.09-30.43 143.34-32.85 146.41-34.18 149.49-35.5 153.14-35.5L153.14-35.5Q156.79-35.5 159.86-34.18 162.94-32.85 165.19-30.43 167.44-28 168.66-24.73 169.89-21.45 169.89-17.5ZM166.69-17.5L166.69-17.5Q166.69-21.95 164.96-25.33 163.24-28.7 160.19-30.6 157.14-32.5 153.14-32.5L153.14-32.5Q149.19-32.5 146.11-30.6 143.04-28.7 141.31-25.33 139.59-21.95 139.59-17.5L139.59-17.5Q139.59-13.05 141.31-9.68 143.04-6.3 146.11-4.4 149.19-2.5 153.14-2.5L153.14-2.5Q157.14-2.5 160.19-4.4 163.24-6.3 164.96-9.68 166.69-13.05 166.69-17.5ZM202.59-35L202.59-35Q203.24-35 203.61-34.6 203.99-34.2 203.99-33.6L203.99-33.6 203.99-1.6Q203.99-0.85 203.51-0.43 203.04 0 202.44 0L202.44 0Q202.14 0 201.79-0.13 201.44-0.25 201.24-0.5L201.24-0.5 178.94-30.55 179.79-31 179.79-1.35Q179.79-0.8 179.39-0.4 178.99 0 178.39 0L178.39 0Q177.74 0 177.36-0.4 176.99-0.8 176.99-1.35L176.99-1.35 176.99-33.5Q176.99-34.25 177.44-34.63 177.89-35 178.44-35L178.44-35Q178.74-35 179.09-34.88 179.44-34.75 179.64-34.45L179.64-34.45 201.69-4.75 201.19-3.85 201.19-33.6Q201.19-34.2 201.61-34.6 202.04-35 202.59-35ZM228.53-35L241.28-35Q244.98-35 247.76-33.6 250.53-32.2 252.33-29.73 254.13-27.25 255.01-24.1 255.88-20.95 255.88-17.5L255.88-17.5Q255.88-12.7 254.31-8.72 252.73-4.75 249.51-2.38 246.28 0 241.28 0L241.28 0 228.53 0Q227.93 0 227.48-0.45 227.03-0.9 227.03-1.5L227.03-1.5 227.03-33.5Q227.03-34.1 227.48-34.55 227.93-35 228.53-35L228.53-35ZM229.88-2.95L240.78-2.95Q245.03-2.95 247.63-4.9 250.23-6.85 251.46-10.18 252.68-13.5 252.68-17.5L252.68-17.5Q252.68-20.4 252.01-23.03 251.33-25.65 249.91-27.68 248.48-29.7 246.21-30.88 243.93-32.05 240.78-32.05L240.78-32.05 229.83-32.05 230.18-32.5 230.18-2.45 229.88-2.95ZM264.48-35L264.48-35 282.83-35Q283.43-35 283.88-34.58 284.33-34.15 284.33-33.5L284.33-33.5Q284.33-32.85 283.88-32.45 283.43-32.05 282.83-32.05L282.83-32.05 265.63-32.05 266.13-32.9 266.13-18.85 265.58-19.5 280.58-19.5Q281.18-19.5 281.63-19.05 282.08-18.6 282.08-18L282.08-18Q282.08-17.35 281.63-16.95 281.18-16.55 280.58-16.55L280.58-16.55 265.68-16.55 266.13-17.05 266.13-2.65 265.88-2.95 282.83-2.95Q283.43-2.95 283.88-2.5 284.33-2.05 284.33-1.45L284.33-1.45Q284.33-0.8 283.88-0.4 283.43 0 282.83 0L282.83 0 264.48 0Q263.88 0 263.43-0.45 262.98-0.9 262.98-1.5L262.98-1.5 262.98-33.5Q262.98-34.1 263.43-34.55 263.88-35 264.48-35ZM316.68-35.05L316.68-35.05Q317.38-35.05 317.8-34.65 318.23-34.25 318.23-33.65L318.23-33.65Q318.23-33.3 318.07-32.9L318.07-32.9 304.73-1Q304.48-0.5 304.07-0.25 303.68 0 303.28 0L303.28 0Q302.82 0 302.43-0.25 302.03-0.5 301.88-0.95L301.88-0.95 288.57-32.8Q288.53-32.95 288.48-33.15 288.43-33.35 288.43-33.6L288.43-33.6Q288.43-34.25 288.9-34.65 289.38-35.05 289.88-35.05L289.88-35.05Q290.93-35.05 291.38-33.95L291.38-33.95 303.88-4.05 302.98-4.05 315.28-34.05Q315.78-35.05 316.68-35.05ZM326.12-35L326.12-35 344.47-35Q345.07-35 345.52-34.58 345.97-34.15 345.97-33.5L345.97-33.5Q345.97-32.85 345.52-32.45 345.07-32.05 344.47-32.05L344.47-32.05 327.27-32.05 327.77-32.9 327.77-18.85 327.22-19.5 342.22-19.5Q342.82-19.5 343.27-19.05 343.72-18.6 343.72-18L343.72-18Q343.72-17.35 343.27-16.95 342.82-16.55 342.22-16.55L342.22-16.55 327.32-16.55 327.77-17.05 327.77-2.65 327.52-2.95 344.47-2.95Q345.07-2.95 345.52-2.5 345.97-2.05 345.97-1.45L345.97-1.45Q345.97-0.8 345.52-0.4 345.07 0 344.47 0L344.47 0 326.12 0Q325.52 0 325.07-0.45 324.62-0.9 324.62-1.5L324.62-1.5 324.62-33.5Q324.62-34.1 325.07-34.55 325.52-35 326.12-35ZM355.22-2.95L372.37-2.95Q372.97-2.95 373.42-2.53 373.87-2.1 373.87-1.5L373.87-1.5Q373.87-0.85 373.42-0.43 372.97 0 372.37 0L372.37 0 354.52 0Q353.87 0 353.44-0.45 353.02-0.9 353.02-1.5L353.02-1.5 353.02-33.5Q353.02-34.1 353.47-34.55 353.92-35 354.62-35L354.62-35Q355.22-35 355.69-34.55 356.17-34.1 356.17-33.5L356.17-33.5 356.17-2.1 355.22-2.95ZM410.32-17.5L410.32-17.5Q410.32-13.55 409.09-10.28 407.87-7 405.62-4.58 403.37-2.15 400.29-0.83 397.22 0.5 393.57 0.5L393.57 0.5Q389.92 0.5 386.84-0.83 383.77-2.15 381.52-4.58 379.27-7 378.04-10.28 376.82-13.55 376.82-17.5L376.82-17.5Q376.82-21.45 378.04-24.73 379.27-28 381.52-30.43 383.77-32.85 386.84-34.18 389.92-35.5 393.57-35.5L393.57-35.5Q397.22-35.5 400.29-34.18 403.37-32.85 405.62-30.43 407.87-28 409.09-24.73 410.32-21.45 410.32-17.5ZM407.12-17.5L407.12-17.5Q407.12-21.95 405.39-25.33 403.67-28.7 400.62-30.6 397.57-32.5 393.57-32.5L393.57-32.5Q389.62-32.5 386.54-30.6 383.47-28.7 381.74-25.33 380.02-21.95 380.02-17.5L380.02-17.5Q380.02-13.05 381.74-9.68 383.47-6.3 386.54-4.4 389.62-2.5 393.57-2.5L393.57-2.5Q397.57-2.5 400.62-4.4 403.67-6.3 405.39-9.68 407.12-13.05 407.12-17.5ZM418.92-35L430.77-35Q433.57-35 435.72-33.73 437.87-32.45 439.12-30.2 440.37-27.95 440.37-25.05L440.37-25.05Q440.37-22.15 439.12-19.83 437.87-17.5 435.72-16.15 433.57-14.8 430.77-14.8L430.77-14.8 420.17-14.8 420.42-15.3 420.42-1.5Q420.42-0.9 419.97-0.45 419.52 0 418.92 0L418.92 0Q418.22 0 417.82-0.45 417.42-0.9 417.42-1.5L417.42-1.5 417.42-33.5Q417.42-34.1 417.87-34.55 418.32-35 418.92-35L418.92-35ZM420.12-17.7L430.77-17.7Q432.72-17.7 434.17-18.68 435.62-19.65 436.44-21.33 437.27-23 437.27-25.05L437.27-25.05Q437.27-27.1 436.44-28.68 435.62-30.25 434.17-31.15 432.72-32.05 430.77-32.05L430.77-32.05 420.17-32.05 420.42-32.5 420.42-17.4 420.12-17.7ZM450.36-33.45L450.36-1.55Q450.31-0.9 449.84-0.45 449.36 0 448.76 0L448.76 0Q448.06 0 447.64-0.45 447.21-0.9 447.21-1.55L447.21-1.55 447.21-33.45Q447.21-34.1 447.66-34.55 448.11-35 448.81-35L448.81-35Q449.41-35 449.89-34.55 450.36-34.1 450.36-33.45L450.36-33.45ZM485.31-35L485.31-35Q485.96-35 486.34-34.6 486.71-34.2 486.71-33.6L486.71-33.6 486.71-1.6Q486.71-0.85 486.24-0.43 485.76 0 485.16 0L485.16 0Q484.86 0 484.51-0.13 484.16-0.25 483.96-0.5L483.96-0.5 461.66-30.55 462.51-31 462.51-1.35Q462.51-0.8 462.11-0.4 461.71 0 461.11 0L461.11 0Q460.46 0 460.09-0.4 459.71-0.8 459.71-1.35L459.71-1.35 459.71-33.5Q459.71-34.25 460.16-34.63 460.61-35 461.16-35L461.16-35Q461.46-35 461.81-34.88 462.16-34.75 462.36-34.45L462.36-34.45 484.41-4.75 483.91-3.85 483.91-33.6Q483.91-34.2 484.34-34.6 484.76-35 485.31-35ZM511.81 0.5L511.81 0.5Q507.96 0.5 504.66-0.85 501.36-2.2 498.93-4.63 496.51-7.05 495.16-10.35 493.81-13.65 493.81-17.5L493.81-17.5Q493.81-21.35 495.16-24.65 496.51-27.95 498.93-30.38 501.36-32.8 504.66-34.15 507.96-35.5 511.81-35.5L511.81-35.5Q514.46-35.5 516.93-34.88 519.41-34.25 521.36-33L521.36-33Q521.71-32.75 521.88-32.43 522.06-32.1 522.06-31.75L522.06-31.75Q522.06-31.05 521.61-30.63 521.16-30.2 520.66-30.2L520.66-30.2Q520.41-30.2 520.18-30.28 519.96-30.35 519.76-30.45L519.76-30.45Q518.06-31.4 516.06-31.95 514.06-32.5 511.81-32.5L511.81-32.5Q507.51-32.5 504.16-30.55 500.81-28.6 498.91-25.2 497.01-21.8 497.01-17.5L497.01-17.5Q497.01-13.2 498.91-9.8 500.81-6.4 504.16-4.45 507.51-2.5 511.81-2.5L511.81-2.5Q514.06-2.5 516.33-3.15 518.61-3.8 520.26-4.9L520.26-4.9 520.01-3.85 520.01-15.35 520.76-14.65 512.11-14.65Q511.46-14.65 511.01-15.1 510.56-15.55 510.56-16.15L510.56-16.15Q510.56-16.85 511.01-17.25 511.46-17.65 512.11-17.65L512.11-17.65 521.66-17.65Q522.31-17.65 522.73-17.23 523.16-16.8 523.16-16.15L523.16-16.15 523.16-4.1Q523.16-3.7 522.96-3.35 522.76-3 522.41-2.75L522.41-2.75Q520.21-1.25 517.48-0.38 514.76 0.5 511.81 0.5Z" opacity="1" transform="matrix(1,0,0,1,0,0)" fill="#ffffff" class="slogan-text-1" data-fill-palette-color="secondary" id="text-1"></path></svg></g></svg></g></svg></g></svg></g><g><svg viewBox="0 0 79.81506216569048 79.81506216569048" height="79.81506216569048" width="79.81506216569048"><g><svg xmlns="http://www.w3.org/2000/svg" xmlns:xlink="http://www.w3.org/1999/xlink" version="1.1" x="0" y="0" viewBox="0 0 34.900999999999996 34.900999999999996" enable-background="new 0 0 34.901 34.901" xml:space="preserve" width="79.81506216569048" height="79.81506216569048" class="icon-icon-0" data-fill-palette-color="accent" id="icon-0"><g fill="#4b5563" data-fill-palette-color="accent"><path d="M17.45 2c8.52 0 15.451 6.931 15.451 15.45 0 8.52-6.931 15.451-15.451 15.451C8.931 32.901 2 25.97 2 17.45 2 8.931 8.931 2 17.45 2M17.45 0C7.813 0 0 7.812 0 17.45c0 9.638 7.813 17.451 17.45 17.451 9.638 0 17.451-7.813 17.451-17.451C34.901 7.812 27.088 0 17.45 0L17.45 0z" fill="#ffffff" data-fill-palette-color="accent"></path><g fill="#4b5563" data-fill-palette-color="accent"><path d="M15.614 34.532c-0.302-0.501-0.402-0.957-0.483-1.323-0.143-0.643-0.255-1.151-2.063-2.136-1.43-0.777-4.391-3.174-4.517-3.276l-0.353-0.286-0.316-8.492 0.96-0.072c6.322-0.474 7.021 0.076 7.284 0.283 1.126 0.886 3.994 2.644 4.663 2.727 0.898-0.036 2.38-0.155 3.106-0.215l1.444-1.825c-0.394-0.423-0.78-0.797-1.044-1.009-0.021 0.018-0.04 0.034-0.057 0.05l-0.804 0.735-1.624-2.114 0.019-0.015-0.02 0.015-0.007-0.01-0.092 0.016-0.647 3.53-1.261-0.83c-0.205-0.135-1.97-1.34-2.167-2.979-0.064-0.045-0.165-0.105-0.244-0.153-0.109-0.065-0.222-0.133-0.334-0.208-0.343-0.229-0.85-0.354-1.181-0.41l-3.255 1.584-2.738-1.905-0.309-4.619 5.589-0.626 2.052 0.505c0.873-0.057 2.189-0.161 2.825-0.253 0.121-0.196 0.281-0.545 0.404-0.96-0.451 0.132-0.973 0.299-1.432 0.458l-0.263 0.053c-0.543 0.033-1.528 0.003-2.055-0.603-0.32-0.367-0.793-1.125-0.884-1.273l-0.332-0.538 3.533-5.47 3.616 1.851c0.281-0.322 0.714-0.898 1.231-1.858 0.285-0.53 0.565-0.965 0.832-1.294l1.555 1.258c-0.188 0.233-0.399 0.564-0.625 0.985-1.204 2.235-2.137 2.871-2.312 2.976l-0.476 0.285-3.122-1.597-1.859 2.878c0.096 0.143 0.19 0.278 0.267 0.379 0.099 0.019 0.252 0.029 0.383 0.029 3.02-1.038 3.331-0.815 3.692-0.558l0.42 0.299 0.021 0.554c0 1.448-0.763 3.805-1.914 4.057-0.776 0.173-3.253 0.332-3.533 0.349l-0.153 0.01-2.004-0.494-3.334 0.373 0.117 1.752 0.986 0.687 2.715-1.321 0.271 0.021c0.143 0.012 1.417 0.129 2.38 0.774 0.083 0.055 0.168 0.106 0.25 0.155 0.424 0.253 1.133 0.677 1.202 1.615 0.008 0.099 0.042 0.206 0.097 0.316l0.277-1.512 2.656-0.469 1.136 1.48c0.232-0.094 0.385-0.094 0.467-0.094 0.294 0 1.077 0 3.154 2.461l0.527 0.625-3.007 3.8-0.429 0.038c-0.096 0.008-2.365 0.208-3.679 0.258-1.433 0.057-5.194-2.616-5.836-3.084-0.57-0.154-2.861-0.124-5.031 0.006l0.21 5.649c1.003 0.799 2.933 2.286 3.861 2.791 2.411 1.314 2.812 2.344 3.059 3.459 0.065 0.292 0.112 0.503 0.245 0.725L15.614 34.532zM29.282 18.392l-4.339-3.393-0.812-3.768 0.533-0.382c0.481-0.345 1.712-1.124 2.715-0.882 0.433 0.104 0.783 0.378 0.986 0.771l0 0.001c0.279 0.542 0.981 1.232 1.206 1.432l0.29 0.258 0.041 0.386c0.102 0.975 0.302 2.222 0.438 2.524 0.438 0.981-0.066 1.94-0.433 2.353L29.282 18.392zM26.746 13.869l1.451 1.135c-0.11-0.568-0.193-1.185-0.243-1.609-0.318-0.312-0.823-0.848-1.187-1.426-0.112 0.04-0.25 0.102-0.393 0.176L26.746 13.869zM8.44 7.693L8.301 6.844C8.245 6.5 8.131 5.489 8.562 4.715 8.367 4.192 8.137 3.207 9.109 2.231l1.417 1.412c-0.175 0.175-0.175 0.175-0.037 0.505 0.095 0.227 0.362 0.865-0.04 1.398 0.393-0.075 0.842-0.192 1.278-0.372 0.956-0.393 2.291-1.52 2.784-1.974 0.452-0.548 0.889-1.242 0.929-1.478-0.032 0.186 1.069-1.264 1.069-1.264 0.433 0.141 0.751 0.467 0.874 0.895 0.218 0.76-0.245 1.83-1.377 3.179L15.923 4.62c-0.193 0.181-1.932 1.787-3.434 2.405-1.537 0.633-3.123 0.658-3.19 0.659L8.44 7.693z" fill="#ffffff" data-fill-palette-color="accent"></path></g></g></svg></g></svg></g></svg></g><defs></defs></svg><rect width="395.52" height="65.32043258781464" fill="none" stroke="none" visibility="hidden"></rect></g></svg></g></svg>